<svg xmlns="http://www.w3.org/2000/svg" xmlns:xlink="http://www.w3.org/1999/xlink" width="210mm" height="297mm" viewBox="0 0 210 297"><defs><linearGradient id="a"><stop offset="0" style="stop-color:#6b80a5;stop-opacity:1"/><stop offset=".335" style="stop-color:#8d99ad;stop-opacity:1"/><stop offset=".733" style="stop-color:#c4c1ba;stop-opacity:1"/><stop offset="1" style="stop-color:#eaddc3;stop-opacity:1"/></linearGradient><linearGradient xlink:href="#a" id="b" x1="174.319" x2="4.246" y1="55.349" y2="241.61" gradientUnits="userSpaceOnUse"/><linearGradient xlink:href="#a" id="c" x1="174.319" x2="4.246" y1="55.349" y2="241.61" gradientUnits="userSpaceOnUse"/></defs><circle cx="107.695" cy="123.128" r="94.042" style="fill:url(#b);fill-opacity:1;stroke:#fff;stroke-width:3.69179;stroke-linecap:round;stroke-opacity:1;paint-order:stroke fill markers"/><circle cx="107.695" cy="123.128" r="94.042" style="fill:url(#c);fill-opacity:1;stroke:#fff;stroke-width:3.69179;stroke-linecap:round;stroke-opacity:1;paint-order:stroke fill markers"/><path d="M46.418 113.592c-.465.087-2.129-3.743-2.52-4.01-.39-.267-4.563-.43-4.65-.896-.088-.465 3.742-2.129 4.01-2.52.267-.39.43-4.563.896-4.65.465-.087 2.129 3.743 2.52 4.01.39.267 4.563.43 4.65.896.087.465-3.743 2.129-4.01 2.52-.267.39-.43 4.563-.896 4.65" style="fill:#eaddc3;fill-opacity:1;stroke:none;stroke-width:1;stroke-linecap:round;stroke-opacity:1;paint-order:stroke fill markers" transform="rotate(9.94 163.69 55.905)"/><path d="M46.418 113.592c-.465.087-2.129-3.743-2.52-4.01-.39-.267-4.563-.43-4.65-.896-.088-.465 3.742-2.129 4.01-2.52.267-.39.43-4.563.896-4.65.465-.087 2.129 3.743 2.52 4.01.39.267 4.563.43 4.65.896.087.465-3.743 2.129-4.01 2.52-.267.39-.43 4.563-.896 4.65" style="fill:#eaddc3;fill-opacity:1;stroke:none;stroke-width:1;stroke-linecap:round;stroke-opacity:1;paint-order:stroke fill markers" transform="rotate(9.94 231.927 794.268)"/><path d="M46.418 113.592c-.465.087-2.129-3.743-2.52-4.01-.39-.267-4.563-.43-4.65-.896-.088-.465 3.742-2.129 4.01-2.52.267-.39.43-4.563.896-4.65.465-.087 2.129 3.743 2.52 4.01.39.267 4.563.43 4.65.896.087.465-3.743 2.129-4.01 2.52-.267.39-.43 4.563-.896 4.65" style="fill:#eaddc3;fill-opacity:1;stroke:none;stroke-width:1;stroke-linecap:round;stroke-opacity:1;paint-order:stroke fill markers" transform="scale(.6698)rotate(9.94 -116.883 258.288)"/><path d="M46.418 113.592c-.465.087-2.129-3.743-2.52-4.01-.39-.267-4.563-.43-4.65-.896-.088-.465 3.742-2.129 4.01-2.52.267-.39.43-4.563.896-4.65.465-.087 2.129 3.743 2.52 4.01.39.267 4.563.43 4.65.896.087.465-3.743 2.129-4.01 2.52-.267.39-.43 4.563-.896 4.65" style="fill:#eaddc3;fill-opacity:1;stroke:none;stroke-width:1;stroke-linecap:round;stroke-opacity:1;paint-order:stroke fill markers" transform="scale(.6698)rotate(9.94 -43.532 1157.267)"/><path d="M46.418 113.592c-.465.087-2.129-3.743-2.52-4.01-.39-.267-4.563-.43-4.65-.896-.088-.465 3.742-2.129 4.01-2.52.267-.39.43-4.563.896-4.65.465-.087 2.129 3.743 2.52 4.01.39.267 4.563.43 4.65.896.087.465-3.743 2.129-4.01 2.52-.267.39-.43 4.563-.896 4.65" style="fill:#eaddc3;fill-opacity:1;stroke:none;stroke-width:1;stroke-linecap:round;stroke-opacity:1;paint-order:stroke fill markers" transform="rotate(9.94 483.604 33.955)scale(1.44526)"/><path d="M46.418 113.592c-.465.087-2.129-3.743-2.52-4.01-.39-.267-4.563-.43-4.65-.896-.088-.465 3.742-2.129 4.01-2.52.267-.39.43-4.563.896-4.65.465-.087 2.129 3.743 2.52 4.01.39.267 4.563.43 4.65.896.087.465-3.743 2.129-4.01 2.52-.267.39-.43 4.563-.896 4.65" style="fill:#eaddc3;fill-opacity:1;stroke:none;stroke-width:1;stroke-linecap:round;stroke-opacity:1;paint-order:stroke fill markers" transform="rotate(9.94 421.943 308.532)"/><path d="M46.418 113.592c-.465.087-2.129-3.743-2.52-4.01-.39-.267-4.563-.43-4.65-.896-.088-.465 3.742-2.129 4.01-2.52.267-.39.43-4.563.896-4.65.465-.087 2.129 3.743 2.52 4.01.39.267 4.563.43 4.65.896.087.465-3.743 2.129-4.01 2.52-.267.39-.43 4.563-.896 4.65" style="fill:#eaddc3;fill-opacity:1;stroke:none;stroke-width:1;stroke-linecap:round;stroke-opacity:1;paint-order:stroke fill markers" transform="scale(.6698)rotate(9.94 278.92 764.352)"/><path d="M46.418 113.592c-.465.087-2.129-3.743-2.52-4.01-.39-.267-4.563-.43-4.65-.896-.088-.465 3.742-2.129 4.01-2.52.267-.39.43-4.563.896-4.65.465-.087 2.129 3.743 2.52 4.01.39.267 4.563.43 4.65.896.087.465-3.743 2.129-4.01 2.52-.267.39-.43 4.563-.896 4.65" style="fill:#eaddc3;fill-opacity:1;stroke:none;stroke-width:1;stroke-linecap:round;stroke-opacity:1;paint-order:stroke fill markers" transform="rotate(9.94 694.132 285.841)scale(1.44526)"/><path d="M46.418 113.592c-.465.087-2.129-3.743-2.52-4.01-.39-.267-4.563-.43-4.65-.896-.088-.465 3.742-2.129 4.01-2.52.267-.39.43-4.563.896-4.65.465-.087 2.129 3.743 2.52 4.01.39.267 4.563.43 4.65.896.087.465-3.743 2.129-4.01 2.52-.267.39-.43 4.563-.896 4.65" style="fill:#eaddc3;fill-opacity:1;stroke:none;stroke-width:1;stroke-linecap:round;stroke-opacity:1;paint-order:stroke fill markers" transform="rotate(9.94 -277.963 836.456)"/><path d="M46.418 113.592c-.465.087-2.129-3.743-2.52-4.01-.39-.267-4.563-.43-4.65-.896-.088-.465 3.742-2.129 4.01-2.52.267-.39.43-4.563.896-4.65.465-.087 2.129 3.743 2.52 4.01.39.267 4.563.43 4.65.896.087.465-3.743 2.129-4.01 2.52-.267.39-.43 4.563-.896 4.65" style="fill:#eaddc3;fill-opacity:1;stroke:none;stroke-width:1;stroke-linecap:round;stroke-opacity:1;paint-order:stroke fill markers" transform="scale(.6698)rotate(9.94 -698.452 1417.697)"/><path d="M46.418 113.592c-.465.087-2.129-3.743-2.52-4.01-.39-.267-4.563-.43-4.65-.896-.088-.465 3.742-2.129 4.01-2.52.267-.39.43-4.563.896-4.65.465-.087 2.129 3.743 2.52 4.01.39.267 4.563.43 4.65.896.087.465-3.743 2.129-4.01 2.52-.267.39-.43 4.563-.896 4.65" style="fill:#eaddc3;fill-opacity:1;stroke:none;stroke-width:1;stroke-linecap:round;stroke-opacity:1;paint-order:stroke fill markers" transform="rotate(9.94 90.056 764.407)scale(1.44526)"/><path d="M46.418 113.592c-.465.087-2.129-3.743-2.52-4.01-.39-.267-4.563-.43-4.65-.896-.088-.465 3.742-2.129 4.01-2.52.267-.39.43-4.563.896-4.65.465-.087 2.129 3.743 2.52 4.01.39.267 4.563.43 4.65.896.087.465-3.743 2.129-4.01 2.52-.267.39-.43 4.563-.896 4.65" style="fill:#eaddc3;fill-opacity:1;stroke:none;stroke-width:1;stroke-linecap:round;stroke-opacity:1;paint-order:stroke fill markers" transform="rotate(9.94 534.029 628.231)scale(1.44526)"/><path d="M46.418 113.592c-.465.087-2.129-3.743-2.52-4.01-.39-.267-4.563-.43-4.65-.896-.088-.465 3.742-2.129 4.01-2.52.267-.39.43-4.563.896-4.65.465-.087 2.129 3.743 2.52 4.01.39.267 4.563.43 4.65.896.087.465-3.743 2.129-4.01 2.52-.267.39-.43 4.563-.896 4.65" style="fill:#eaddc3;fill-opacity:1;stroke:none;stroke-width:1;stroke-linecap:round;stroke-opacity:1;paint-order:stroke fill markers" transform="scale(8.90812)rotate(9.94 566.345 -116.049)"/><path d="M31.323 120.762c-.073.19-1.841-.065-2.026.018-.185.082-1.182 1.565-1.37 1.492-.19-.073.064-1.841-.018-2.026s-1.565-1.181-1.492-1.37 1.84.065 2.026-.018c.185-.082 1.181-1.565 1.37-1.492s-.065 1.84.017 2.026c.083.185 1.565 1.181 1.493 1.37" style="opacity:1;fill:#eaddc3;fill-opacity:1;stroke:none;stroke-width:1;stroke-linecap:round;stroke-opacity:1;paint-order:stroke fill markers" transform="scale(.35165)rotate(-19.767 674.223 88.25)"/><path d="M31.323 120.762c-.073.19-1.841-.065-2.026.018-.185.082-1.182 1.565-1.37 1.492-.19-.073.064-1.841-.018-2.026s-1.565-1.181-1.492-1.37 1.84.065 2.026-.018c.185-.082 1.181-1.565 1.37-1.492s-.065 1.84.017 2.026c.083.185 1.565 1.181 1.493 1.37" style="fill:#eaddc3;fill-opacity:1;stroke:none;stroke-width:1;stroke-linecap:round;stroke-opacity:1;paint-order:stroke fill markers" transform="scale(.35165)rotate(-19.767 741.16 -21.442)"/><path d="M31.323 120.762c-.073.19-1.841-.065-2.026.018-.185.082-1.182 1.565-1.37 1.492-.19-.073.064-1.841-.018-2.026s-1.565-1.181-1.492-1.37 1.84.065 2.026-.018c.185-.082 1.181-1.565 1.37-1.492s-.065 1.84.017 2.026c.083.185 1.565 1.181 1.493 1.37" style="fill:#eaddc3;fill-opacity:1;stroke:none;stroke-width:1;stroke-linecap:round;stroke-opacity:1;paint-order:stroke fill markers" transform="matrix(.33093 -.11892 .11892 .33093 33.536 83.732)"/><path d="M31.323 120.762c-.073.19-1.841-.065-2.026.018-.185.082-1.182 1.565-1.37 1.492-.19-.073.064-1.841-.018-2.026s-1.565-1.181-1.492-1.37 1.84.065 2.026-.018c.185-.082 1.181-1.565 1.37-1.492s-.065 1.84.017 2.026c.083.185 1.565 1.181 1.493 1.37" style="fill:#eaddc3;fill-opacity:1;stroke:none;stroke-width:1;stroke-linecap:round;stroke-opacity:1;paint-order:stroke fill markers" transform="matrix(.33093 -.11892 .11892 .33093 47.289 96.696)"/><path d="M31.323 120.762c-.073.19-1.841-.065-2.026.018-.185.082-1.182 1.565-1.37 1.492-.19-.073.064-1.841-.018-2.026s-1.565-1.181-1.492-1.37 1.84.065 2.026-.018c.185-.082 1.181-1.565 1.37-1.492s-.065 1.84.017 2.026c.083.185 1.565 1.181 1.493 1.37" style="fill:#eaddc3;fill-opacity:1;stroke:none;stroke-width:1;stroke-linecap:round;stroke-opacity:1;paint-order:stroke fill markers" transform="matrix(.33093 -.11892 .11892 .33093 69.275 103.949)"/><path d="M31.323 120.762c-.073.19-1.841-.065-2.026.018-.185.082-1.182 1.565-1.37 1.492-.19-.073.064-1.841-.018-2.026s-1.565-1.181-1.492-1.37 1.84.065 2.026-.018c.185-.082 1.181-1.565 1.37-1.492s-.065 1.84.017 2.026c.083.185 1.565 1.181 1.493 1.37" style="fill:#eaddc3;fill-opacity:1;stroke:none;stroke-width:1;stroke-linecap:round;stroke-opacity:1;paint-order:stroke fill markers" transform="matrix(.33093 -.11892 .11892 .33093 77.394 68.217)"/><path d="M31.323 120.762c-.073.19-1.841-.065-2.026.018-.185.082-1.182 1.565-1.37 1.492-.19-.073.064-1.841-.018-2.026s-1.565-1.181-1.492-1.37 1.84.065 2.026-.018c.185-.082 1.181-1.565 1.37-1.492s-.065 1.84.017 2.026c.083.185 1.565 1.181 1.493 1.37" style="fill:#eaddc3;fill-opacity:1;stroke:none;stroke-width:1;stroke-linecap:round;stroke-opacity:1;paint-order:stroke fill markers" transform="matrix(.33093 -.11892 .11892 .33093 39.239 57.115)"/><path d="M31.323 120.762c-.073.19-1.841-.065-2.026.018-.185.082-1.182 1.565-1.37 1.492-.19-.073.064-1.841-.018-2.026s-1.565-1.181-1.492-1.37 1.84.065 2.026-.018c.185-.082 1.181-1.565 1.37-1.492s-.065 1.84.017 2.026c.083.185 1.565 1.181 1.493 1.37" style="fill:#eaddc3;fill-opacity:1;stroke:none;stroke-width:1;stroke-linecap:round;stroke-opacity:1;paint-order:stroke fill markers" transform="matrix(.33093 -.11892 .11892 .33093 57.263 71.815)"/><path d="M31.323 120.762c-.073.19-1.841-.065-2.026.018-.185.082-1.182 1.565-1.37 1.492-.19-.073.064-1.841-.018-2.026s-1.565-1.181-1.492-1.37 1.84.065 2.026-.018c.185-.082 1.181-1.565 1.37-1.492s-.065 1.84.017 2.026c.083.185 1.565 1.181 1.493 1.37" style="fill:#eaddc3;fill-opacity:1;stroke:none;stroke-width:1;stroke-linecap:round;stroke-opacity:1;paint-order:stroke fill markers" transform="matrix(.33093 -.11892 .11892 .33093 73.959 51.49)"/><path d="M31.323 120.762c-.073.19-1.841-.065-2.026.018-.185.082-1.182 1.565-1.37 1.492-.19-.073.064-1.841-.018-2.026s-1.565-1.181-1.492-1.37 1.84.065 2.026-.018c.185-.082 1.181-1.565 1.37-1.492s-.065 1.84.017 2.026c.083.185 1.565 1.181 1.493 1.37" style="fill:#eaddc3;fill-opacity:1;stroke:none;stroke-width:1;stroke-linecap:round;stroke-opacity:1;paint-order:stroke fill markers" transform="matrix(.33093 -.11892 .11892 .33093 51.469 34.291)"/><path d="M31.323 120.762c-.073.19-1.841-.065-2.026.018-.185.082-1.182 1.565-1.37 1.492-.19-.073.064-1.841-.018-2.026s-1.565-1.181-1.492-1.37 1.84.065 2.026-.018c.185-.082 1.181-1.565 1.37-1.492s-.065 1.84.017 2.026c.083.185 1.565 1.181 1.493 1.37" style="fill:#eaddc3;fill-opacity:1;stroke:none;stroke-width:1;stroke-linecap:round;stroke-opacity:1;paint-order:stroke fill markers" transform="matrix(.33093 -.11892 .11892 .33093 17.338 34.291)"/><path d="M31.323 120.762c-.073.19-1.841-.065-2.026.018-.185.082-1.182 1.565-1.37 1.492-.19-.073.064-1.841-.018-2.026s-1.565-1.181-1.492-1.37 1.84.065 2.026-.018c.185-.082 1.181-1.565 1.37-1.492s-.065 1.84.017 2.026c.083.185 1.565 1.181 1.493 1.37" style="fill:#eaddc3;fill-opacity:1;stroke:none;stroke-width:1;stroke-linecap:round;stroke-opacity:1;paint-order:stroke fill markers" transform="matrix(.33093 -.11892 .11892 .33093 20.513 70.54)"/><path d="M31.323 120.762c-.073.19-1.841-.065-2.026.018-.185.082-1.182 1.565-1.37 1.492-.19-.073.064-1.841-.018-2.026s-1.565-1.181-1.492-1.37 1.84.065 2.026-.018c.185-.082 1.181-1.565 1.37-1.492s-.065 1.84.017 2.026c.083.185 1.565 1.181 1.493 1.37" style="fill:#eaddc3;fill-opacity:1;stroke:none;stroke-width:1;stroke-linecap:round;stroke-opacity:1;paint-order:stroke fill markers" transform="matrix(.33093 -.11892 .11892 .33093 5.237 61.747)"/><path d="M31.323 120.762c-.073.19-1.841-.065-2.026.018-.185.082-1.182 1.565-1.37 1.492-.19-.073.064-1.841-.018-2.026s-1.565-1.181-1.492-1.37 1.84.065 2.026-.018c.185-.082 1.181-1.565 1.37-1.492s-.065 1.84.017 2.026c.083.185 1.565 1.181 1.493 1.37" style="fill:#eaddc3;fill-opacity:1;stroke:none;stroke-width:1;stroke-linecap:round;stroke-opacity:1;paint-order:stroke fill markers" transform="matrix(.33093 -.11892 .11892 .33093 119.27 131.425)"/><path d="M31.323 120.762c-.073.19-1.841-.065-2.026.018-.185.082-1.182 1.565-1.37 1.492-.19-.073.064-1.841-.018-2.026s-1.565-1.181-1.492-1.37 1.84.065 2.026-.018c.185-.082 1.181-1.565 1.37-1.492s-.065 1.84.017 2.026c.083.185 1.565 1.181 1.493 1.37" style="fill:#eaddc3;fill-opacity:1;stroke:none;stroke-width:1;stroke-linecap:round;stroke-opacity:1;paint-order:stroke fill markers" transform="scale(.35165)rotate(-19.767 535.9 -391.684)"/><path d="M31.323 120.762c-.073.19-1.841-.065-2.026.018-.185.082-1.182 1.565-1.37 1.492-.19-.073.064-1.841-.018-2.026s-1.565-1.181-1.492-1.37 1.84.065 2.026-.018c.185-.082 1.181-1.565 1.37-1.492s-.065 1.84.017 2.026c.083.185 1.565 1.181 1.493 1.37" style="fill:#eaddc3;fill-opacity:1;stroke:none;stroke-width:1;stroke-linecap:round;stroke-opacity:1;paint-order:stroke fill markers" transform="matrix(.33093 -.11892 .11892 .33093 115.234 141.183)"/><path d="M31.323 120.762c-.073.19-1.841-.065-2.026.018-.185.082-1.182 1.565-1.37 1.492-.19-.073.064-1.841-.018-2.026s-1.565-1.181-1.492-1.37 1.84.065 2.026-.018c.185-.082 1.181-1.565 1.37-1.492s-.065 1.84.017 2.026c.083.185 1.565 1.181 1.493 1.37" style="fill:#eaddc3;fill-opacity:1;stroke:none;stroke-width:1;stroke-linecap:round;stroke-opacity:1;paint-order:stroke fill markers" transform="matrix(.33093 -.11892 .11892 .33093 122.113 117.37)"/><path d="M31.323 120.762c-.073.19-1.841-.065-2.026.018-.185.082-1.182 1.565-1.37 1.492-.19-.073.064-1.841-.018-2.026s-1.565-1.181-1.492-1.37 1.84.065 2.026-.018c.185-.082 1.181-1.565 1.37-1.492s-.065 1.84.017 2.026c.083.185 1.565 1.181 1.493 1.37" style="fill:#eaddc3;fill-opacity:1;stroke:none;stroke-width:1;stroke-linecap:round;stroke-opacity:1;paint-order:stroke fill markers" transform="matrix(.33093 -.11892 .11892 .33093 130.05 129.541)"/><path d="M31.323 120.762c-.073.19-1.841-.065-2.026.018-.185.082-1.182 1.565-1.37 1.492-.19-.073.064-1.841-.018-2.026s-1.565-1.181-1.492-1.37 1.84.065 2.026-.018c.185-.082 1.181-1.565 1.37-1.492s-.065 1.84.017 2.026c.083.185 1.565 1.181 1.493 1.37" style="fill:#eaddc3;fill-opacity:1;stroke:none;stroke-width:1;stroke-linecap:round;stroke-opacity:1;paint-order:stroke fill markers" transform="scale(.35165)rotate(-19.767 1402.9 -1033.81)"/><path d="M31.323 120.762c-.073.19-1.841-.065-2.026.018-.185.082-1.182 1.565-1.37 1.492-.19-.073.064-1.841-.018-2.026s-1.565-1.181-1.492-1.37 1.84.065 2.026-.018c.185-.082 1.181-1.565 1.37-1.492s-.065 1.84.017 2.026c.083.185 1.565 1.181 1.493 1.37" style="fill:#eaddc3;fill-opacity:1;stroke:none;stroke-width:1;stroke-linecap:round;stroke-opacity:1;paint-order:stroke fill markers" transform="matrix(.33093 -.11892 .11892 .33093 161.536 129.541)"/><path d="M31.323 120.762c-.073.19-1.841-.065-2.026.018-.185.082-1.182 1.565-1.37 1.492-.19-.073.064-1.841-.018-2.026s-1.565-1.181-1.492-1.37 1.84.065 2.026-.018c.185-.082 1.181-1.565 1.37-1.492s-.065 1.84.017 2.026c.083.185 1.565 1.181 1.493 1.37" style="fill:#eaddc3;fill-opacity:1;stroke:none;stroke-width:1;stroke-linecap:round;stroke-opacity:1;paint-order:stroke fill markers" transform="matrix(.33093 -.11892 .11892 .33093 161.006 103.083)"/><path d="M31.323 120.762c-.073.19-1.841-.065-2.026.018-.185.082-1.182 1.565-1.37 1.492-.19-.073.064-1.841-.018-2.026s-1.565-1.181-1.492-1.37 1.84.065 2.026-.018c.185-.082 1.181-1.565 1.37-1.492s-.065 1.84.017 2.026c.083.185 1.565 1.181 1.493 1.37" style="fill:#eaddc3;fill-opacity:1;stroke:none;stroke-width:1;stroke-linecap:round;stroke-opacity:1;paint-order:stroke fill markers" transform="matrix(.33093 -.11892 .11892 .33093 165.504 115.518)"/><path d="M31.323 120.762c-.073.19-1.841-.065-2.026.018-.185.082-1.182 1.565-1.37 1.492-.19-.073.064-1.841-.018-2.026s-1.565-1.181-1.492-1.37 1.84.065 2.026-.018c.185-.082 1.181-1.565 1.37-1.492s-.065 1.84.017 2.026c.083.185 1.565 1.181 1.493 1.37" style="fill:#eaddc3;fill-opacity:1;stroke:none;stroke-width:1;stroke-linecap:round;stroke-opacity:1;paint-order:stroke fill markers" transform="matrix(.33093 -.11892 .11892 .33093 138.517 113.402)"/><path d="M31.323 120.762c-.073.19-1.841-.065-2.026.018-.185.082-1.182 1.565-1.37 1.492-.19-.073.064-1.841-.018-2.026s-1.565-1.181-1.492-1.37 1.84.065 2.026-.018c.185-.082 1.181-1.565 1.37-1.492s-.065 1.84.017 2.026c.083.185 1.565 1.181 1.493 1.37" style="fill:#eaddc3;fill-opacity:1;stroke:none;stroke-width:1;stroke-linecap:round;stroke-opacity:1;paint-order:stroke fill markers" transform="matrix(.33093 -.11892 .11892 .33093 171.59 80.064)"/><path d="M31.323 120.762c-.073.19-1.841-.065-2.026.018-.185.082-1.182 1.565-1.37 1.492-.19-.073.064-1.841-.018-2.026s-1.565-1.181-1.492-1.37 1.84.065 2.026-.018c.185-.082 1.181-1.565 1.37-1.492s-.065 1.84.017 2.026c.083.185 1.565 1.181 1.493 1.37" style="fill:#eaddc3;fill-opacity:1;stroke:none;stroke-width:1;stroke-linecap:round;stroke-opacity:1;paint-order:stroke fill markers" transform="matrix(.33093 -.11892 .11892 .33093 154.127 75.037)"/><path d="M31.323 120.762c-.073.19-1.841-.065-2.026.018-.185.082-1.182 1.565-1.37 1.492-.19-.073.064-1.841-.018-2.026s-1.565-1.181-1.492-1.37 1.84.065 2.026-.018c.185-.082 1.181-1.565 1.37-1.492s-.065 1.84.017 2.026c.083.185 1.565 1.181 1.493 1.37" style="fill:#eaddc3;fill-opacity:1;stroke:none;stroke-width:1;stroke-linecap:round;stroke-opacity:1;paint-order:stroke fill markers" transform="matrix(.33093 -.11892 .11892 .33093 132.96 70.54)"/><path d="M31.323 120.762c-.073.19-1.841-.065-2.026.018-.185.082-1.182 1.565-1.37 1.492-.19-.073.064-1.841-.018-2.026s-1.565-1.181-1.492-1.37 1.84.065 2.026-.018c.185-.082 1.181-1.565 1.37-1.492s-.065 1.84.017 2.026c.083.185 1.565 1.181 1.493 1.37" style="fill:#eaddc3;fill-opacity:1;stroke:none;stroke-width:1;stroke-linecap:round;stroke-opacity:1;paint-order:stroke fill markers" transform="matrix(.33093 -.11892 .11892 .33093 136.665 59.162)"/><path d="M31.323 120.762c-.073.19-1.841-.065-2.026.018-.185.082-1.182 1.565-1.37 1.492-.19-.073.064-1.841-.018-2.026s-1.565-1.181-1.492-1.37 1.84.065 2.026-.018c.185-.082 1.181-1.565 1.37-1.492s-.065 1.84.017 2.026c.083.185 1.565 1.181 1.493 1.37" style="fill:#eaddc3;fill-opacity:1;stroke:none;stroke-width:1;stroke-linecap:round;stroke-opacity:1;paint-order:stroke fill markers" transform="matrix(.33093 -.11892 .11892 .33093 160.477 53.606)"/><path d="M31.323 120.762c-.073.19-1.841-.065-2.026.018-.185.082-1.182 1.565-1.37 1.492-.19-.073.064-1.841-.018-2.026s-1.565-1.181-1.492-1.37 1.84.065 2.026-.018c.185-.082 1.181-1.565 1.37-1.492s-.065 1.84.017 2.026c.083.185 1.565 1.181 1.493 1.37" style="fill:#eaddc3;fill-opacity:1;stroke:none;stroke-width:1;stroke-linecap:round;stroke-opacity:1;paint-order:stroke fill markers" transform="matrix(.33093 -.11892 .11892 .33093 149.63 66.041)"/><path d="M31.323 120.762c-.073.19-1.841-.065-2.026.018-.185.082-1.182 1.565-1.37 1.492-.19-.073.064-1.841-.018-2.026s-1.565-1.181-1.492-1.37 1.84.065 2.026-.018c.185-.082 1.181-1.565 1.37-1.492s-.065 1.84.017 2.026c.083.185 1.565 1.181 1.493 1.37" style="fill:#eaddc3;fill-opacity:1;stroke:none;stroke-width:1;stroke-linecap:round;stroke-opacity:1;paint-order:stroke fill markers" transform="matrix(.33093 -.11892 .11892 .33093 150.688 36.673)"/><path d="M31.323 120.762c-.073.19-1.841-.065-2.026.018-.185.082-1.182 1.565-1.37 1.492-.19-.073.064-1.841-.018-2.026s-1.565-1.181-1.492-1.37 1.84.065 2.026-.018c.185-.082 1.181-1.565 1.37-1.492s-.065 1.84.017 2.026c.083.185 1.565 1.181 1.493 1.37" style="fill:#eaddc3;fill-opacity:1;stroke:none;stroke-width:1;stroke-linecap:round;stroke-opacity:1;paint-order:stroke fill markers" transform="matrix(.33093 -.11892 .11892 .33093 136.136 19.21)"/><path d="M31.323 120.762c-.073.19-1.841-.065-2.026.018-.185.082-1.182 1.565-1.37 1.492-.19-.073.064-1.841-.018-2.026s-1.565-1.181-1.492-1.37 1.84.065 2.026-.018c.185-.082 1.181-1.565 1.37-1.492s-.065 1.84.017 2.026c.083.185 1.565 1.181 1.493 1.37" style="fill:#eaddc3;fill-opacity:1;stroke:none;stroke-width:1;stroke-linecap:round;stroke-opacity:1;paint-order:stroke fill markers" transform="scale(.35165)rotate(-19.767 431.614 -962.75)"/><path d="M31.323 120.762c-.073.19-1.841-.065-2.026.018-.185.082-1.182 1.565-1.37 1.492-.19-.073.064-1.841-.018-2.026s-1.565-1.181-1.492-1.37 1.84.065 2.026-.018c.185-.082 1.181-1.565 1.37-1.492s-.065 1.84.017 2.026c.083.185 1.565 1.181 1.493 1.37" style="fill:#eaddc3;fill-opacity:1;stroke:none;stroke-width:1;stroke-linecap:round;stroke-opacity:1;paint-order:stroke fill markers" transform="matrix(.33093 -.11892 .11892 .33093 117.88 5.452)"/><path d="M31.323 120.762c-.073.19-1.841-.065-2.026.018-.185.082-1.182 1.565-1.37 1.492-.19-.073.064-1.841-.018-2.026s-1.565-1.181-1.492-1.37 1.84.065 2.026-.018c.185-.082 1.181-1.565 1.37-1.492s-.065 1.84.017 2.026c.083.185 1.565 1.181 1.493 1.37" style="fill:#eaddc3;fill-opacity:1;stroke:none;stroke-width:1;stroke-linecap:round;stroke-opacity:1;paint-order:stroke fill markers" transform="matrix(.33093 -.11892 .11892 .33093 100.946 14.183)"/><path d="M31.323 120.762c-.073.19-1.841-.065-2.026.018-.185.082-1.182 1.565-1.37 1.492-.19-.073.064-1.841-.018-2.026s-1.565-1.181-1.492-1.37 1.84.065 2.026-.018c.185-.082 1.181-1.565 1.37-1.492s-.065 1.84.017 2.026c.083.185 1.565 1.181 1.493 1.37" style="fill:#eaddc3;fill-opacity:1;stroke:none;stroke-width:1;stroke-linecap:round;stroke-opacity:1;paint-order:stroke fill markers" transform="matrix(.33093 -.11892 .11892 .33093 84.013 -.898)"/><path d="M31.323 120.762c-.073.19-1.841-.065-2.026.018-.185.082-1.182 1.565-1.37 1.492-.19-.073.064-1.841-.018-2.026s-1.565-1.181-1.492-1.37 1.84.065 2.026-.018c.185-.082 1.181-1.565 1.37-1.492s-.065 1.84.017 2.026c.083.185 1.565 1.181 1.493 1.37" style="fill:#eaddc3;fill-opacity:1;stroke:none;stroke-width:1;stroke-linecap:round;stroke-opacity:1;paint-order:stroke fill markers" transform="matrix(.33093 -.11892 .11892 .33093 30.302 13.918)"/><path d="M31.323 120.762c-.073.19-1.841-.065-2.026.018-.185.082-1.182 1.565-1.37 1.492-.19-.073.064-1.841-.018-2.026s-1.565-1.181-1.492-1.37 1.84.065 2.026-.018c.185-.082 1.181-1.565 1.37-1.492s-.065 1.84.017 2.026c.083.185 1.565 1.181 1.493 1.37" style="fill:#eaddc3;fill-opacity:1;stroke:none;stroke-width:1;stroke-linecap:round;stroke-opacity:1;paint-order:stroke fill markers" transform="matrix(.33093 -.11892 .11892 .33093 79.515 31.116)"/><path d="M31.323 120.762c-.073.19-1.841-.065-2.026.018-.185.082-1.182 1.565-1.37 1.492-.19-.073.064-1.841-.018-2.026s-1.565-1.181-1.492-1.37 1.84.065 2.026-.018c.185-.082 1.181-1.565 1.37-1.492s-.065 1.84.017 2.026c.083.185 1.565 1.181 1.493 1.37" style="fill:#eaddc3;fill-opacity:1;stroke:none;stroke-width:1;stroke-linecap:round;stroke-opacity:1;paint-order:stroke fill markers" transform="matrix(.33093 -.11892 .11892 .33093 37.975 28.47)"/><path d="M128.254 180.095c1.706-4.442 5.407-20.752 10.192-29.686s10.656-10.49 18.918-12.926c8.26-2.435 18.912-5.748 16.21-6.082s-18.756 2.313-27.907 5.048-11.397 5.56-13.337 11.113c-1.94 5.554-3.575 13.838-4.536 21.693s-1.247 15.282.46 10.84" style="opacity:.604;fill:#fff;fill-opacity:1;stroke:none;stroke-width:1;stroke-linecap:round;stroke-opacity:1;paint-order:stroke fill markers" transform="matrix(.8614 0 0 .8614 20.808 14.74)"/><path d="M128.254 180.095c1.706-4.442 5.407-20.752 10.192-29.686s10.656-10.49 18.918-12.926c8.26-2.435 18.912-5.748 16.21-6.082s-18.756 2.313-27.907 5.048-11.397 5.56-13.337 11.113c-1.94 5.554-3.575 13.838-4.536 21.693s-1.247 15.282.46 10.84" style="opacity:.604;fill:#fff;fill-opacity:1;stroke:none;stroke-width:1;stroke-linecap:round;stroke-opacity:1;paint-order:stroke fill markers" transform="matrix(-.75477 0 0 -.75477 222.192 225.45)"/><circle cx="11.51" cy="142.462" r="26.228" style="opacity:.665;fill:#fff;fill-opacity:1;stroke-width:1;stroke-linecap:round;paint-order:stroke fill markers"/><circle cx="28.316" cy="155.597" r="26.228" style="opacity:.665;fill:#fff;fill-opacity:1;stroke-width:1;stroke-linecap:round;paint-order:stroke fill markers"/><circle cx="26.86" cy="174.253" r="26.228" style="opacity:.665;fill:#fff;fill-opacity:1;stroke-width:1;stroke-linecap:round;paint-order:stroke fill markers"/><circle cx="53.195" cy="173.322" r="26.228" style="opacity:.665;fill:#fff;fill-opacity:1;stroke-width:1;stroke-linecap:round;paint-order:stroke fill markers"/><circle cx="47.477" cy="195.212" r="26.228" style="opacity:.665;fill:#fff;fill-opacity:1;stroke-width:1;stroke-linecap:round;paint-order:stroke fill markers"/><circle cx="51.212" cy="153.151" r="26.228" style="opacity:.665;fill:#fff;fill-opacity:1;stroke-width:1;stroke-linecap:round;paint-order:stroke fill markers"/><circle cx="76.14" cy="175.133" r="26.228" style="opacity:.665;fill:#fff;fill-opacity:1;stroke-width:1;stroke-linecap:round;paint-order:stroke fill markers"/><circle cx="73.289" cy="203.037" r="26.228" style="opacity:.665;fill:#fff;fill-opacity:1;stroke-width:1;stroke-linecap:round;paint-order:stroke fill markers"/><circle cx="94.648" cy="204.145" r="26.228" style="opacity:.665;fill:#fff;fill-opacity:1;stroke-width:1;stroke-linecap:round;paint-order:stroke fill markers"/><circle cx="130.875" cy="221.956" r="26.228" style="opacity:.665;fill:#fff;fill-opacity:1;stroke-width:1;stroke-linecap:round;paint-order:stroke fill markers"/><circle cx="101.576" cy="215.904" r="26.228" style="opacity:.665;fill:#fff;fill-opacity:1;stroke-width:1;stroke-linecap:round;paint-order:stroke fill markers"/></svg>